<svg xmlns="http://www.w3.org/2000/svg" xmlns:xlink="http://www.w3.org/1999/xlink" viewBox="0 0 1372.57 773.3"><defs><linearGradient id="linear-gradient" x1="0.82" y1="386.65" x2="1372.57" y2="386.65" gradientUnits="userSpaceOnUse"><stop offset="0" stop-color="#a33545"/><stop offset="1" stop-color="#be2d45"/></linearGradient><linearGradient id="linear-gradient-2" x1="-1" y1="422.06" x2="1371.57" y2="422.06" xlink:href="#linear-gradient"/><linearGradient id="linear-gradient-3" x1="182.33" y1="585.47" x2="325.38" y2="585.47" gradientUnits="userSpaceOnUse"><stop offset="0" stop-color="#be2d45" stop-opacity="0.4"/><stop offset="1" stop-color="#be2d45"/></linearGradient><linearGradient id="linear-gradient-4" x1="1212.25" y1="766.2" x2="1212.25" y2="678.09" gradientTransform="translate(927.96 1516.33) rotate(-135)" xlink:href="#linear-gradient-3"/><linearGradient id="linear-gradient-5" x1="1048.02" y1="189.09" x2="1043.4" y2="478.92" gradientTransform="matrix(1, 0, 0, -1, -724.98, 696.23)" xlink:href="#linear-gradient"/><linearGradient id="linear-gradient-6" x1="933.79" y1="305.53" x2="949.19" y2="532.85" gradientTransform="matrix(1, 0, 0, -1, -514.11, 795.97)" gradientUnits="userSpaceOnUse"><stop offset="0" stop-color="#b493f9"/><stop offset="1" stop-color="#651aec"/></linearGradient><linearGradient id="linear-gradient-7" x1="987.53" y1="358.74" x2="989.16" y2="446.45" gradientTransform="matrix(-1, 0, 0, 1, 1366, 0)" xlink:href="#linear-gradient"/><linearGradient id="linear-gradient-8" x1="1031.68" y1="184.87" x2="1037.19" y2="565.18" gradientTransform="matrix(-1, 0, 0, 1, 1366, 0)" xlink:href="#linear-gradient-6"/><linearGradient id="linear-gradient-9" x1="1032.24" y1="223.34" x2="1035.51" y2="449.36" gradientTransform="matrix(-1, 0, 0, 1, 1366, 0)" gradientUnits="userSpaceOnUse"><stop offset="0" stop-color="#23d0dc"/><stop offset="1" stop-color="#2790f1"/></linearGradient><linearGradient id="linear-gradient-10" x1="1045.78" y1="339.64" x2="1039.25" y2="442.84" gradientTransform="matrix(-1, 0, 0, 1, 1366, 0)" gradientUnits="userSpaceOnUse"><stop offset="0" stop-color="#f9b546"/><stop offset="1" stop-color="#f4642c"/></linearGradient><linearGradient id="linear-gradient-11" x1="800.27" y1="313.25" x2="932.43" y2="313.25" gradientTransform="matrix(1, 0, 0, -1, -366.7, 626.49)" xlink:href="#linear-gradient"/><linearGradient id="linear-gradient-12" x1="800.27" y1="331.05" x2="932.43" y2="331.05" gradientTransform="matrix(1, 0, 0, -1, -366.7, 662.09)" xlink:href="#linear-gradient"/><linearGradient id="linear-gradient-13" x1="800.27" y1="348.85" x2="884.25" y2="348.85" gradientTransform="matrix(1, 0, 0, -1, -318.52, 697.69)" xlink:href="#linear-gradient"/><linearGradient id="linear-gradient-14" x1="800.27" y1="366.64" x2="884.25" y2="366.64" gradientTransform="matrix(1, 0, 0, -1, -318.52, 733.29)" xlink:href="#linear-gradient"/><linearGradient id="linear-gradient-15" x1="1228.22" y1="233.02" x2="1317.74" y2="233.02" xlink:href="#linear-gradient-9"/><linearGradient id="linear-gradient-16" x1="1228.22" y1="246.59" x2="1317.74" y2="246.59" xlink:href="#linear-gradient-9"/><linearGradient id="linear-gradient-17" x1="1228.22" y1="260.16" x2="1317.74" y2="260.16" xlink:href="#linear-gradient-9"/><linearGradient id="linear-gradient-18" x1="1228.22" y1="273.74" x2="1293.5" y2="273.74" xlink:href="#linear-gradient-9"/><linearGradient id="linear-gradient-19" x1="1228.22" y1="287.31" x2="1276.88" y2="287.31" xlink:href="#linear-gradient-9"/><linearGradient id="linear-gradient-20" x1="798.82" y1="89.86" x2="798.82" y2="160.03" gradientTransform="matrix(-1, 0, 0, 1, 1366, 0)" xlink:href="#linear-gradient-3"/><linearGradient id="linear-gradient-21" x1="822.19" y1="89.86" x2="822.19" y2="160.03" gradientTransform="matrix(-1, 0, 0, 1, 1366, 0)" xlink:href="#linear-gradient-3"/><linearGradient id="linear-gradient-22" x1="845.57" y1="89.86" x2="845.57" y2="160.03" gradientTransform="matrix(-1, 0, 0, 1, 1366, 0)" xlink:href="#linear-gradient-3"/><linearGradient id="linear-gradient-23" x1="783.95" y1="222.23" x2="878.18" y2="222.23" gradientTransform="matrix(1, 0, 0, -1, -296.13, 444.47)" xlink:href="#linear-gradient-6"/><linearGradient id="linear-gradient-24" x1="834.2" y1="214.1" x2="835.54" y2="259.12" gradientTransform="matrix(-1, 0, 0, 1, 1366, 0)" xlink:href="#linear-gradient"/><linearGradient id="linear-gradient-25" x1="826.31" y1="181.28" x2="827.74" y2="230.03" gradientTransform="matrix(-1, 0, 0, 1, 1366, 0)" gradientUnits="userSpaceOnUse"><stop offset="0" stop-color="#fc8190"/><stop offset="1" stop-color="#f9394a"/></linearGradient><linearGradient id="linear-gradient-26" x1="892.56" y1="222.23" x2="986.79" y2="222.23" gradientTransform="matrix(1, 0, 0, -1, -513.35, 444.47)" xlink:href="#linear-gradient-6"/><linearGradient id="linear-gradient-27" x1="945.43" y1="265.07" x2="944.61" y2="235.9" xlink:href="#linear-gradient-25"/><linearGradient id="linear-gradient-28" x1="944.73" y1="219.49" x2="943.61" y2="242.34" xlink:href="#linear-gradient-25"/><linearGradient id="linear-gradient-29" x1="1114.4" y1="459.53" x2="1208.34" y2="459.53" gradientTransform="matrix(1, 0, 0, -1, -956.74, 919.07)" xlink:href="#linear-gradient-9"/><linearGradient id="linear-gradient-30" x1="1221.71" y1="458.33" x2="1315.64" y2="458.33" gradientTransform="matrix(1, 0, 0, -1, -1171.35, 916.66)" xlink:href="#linear-gradient-9"/><linearGradient id="linear-gradient-31" x1="1114.58" y1="356.53" x2="1315.04" y2="356.53" gradientTransform="matrix(1, 0, 0, -1, -1063.62, 713.05)" xlink:href="#linear-gradient-9"/><linearGradient id="linear-gradient-32" x1="1215.26" y1="323.41" x2="1309.14" y2="323.41" gradientTransform="matrix(-1, 0, 0, 1, 1366, 0)" gradientUnits="userSpaceOnUse"><stop offset="0" stop-color="#ede5fc"/><stop offset="1" stop-color="#dcd0f7"/></linearGradient><linearGradient id="linear-gradient-33" x1="1215.26" y1="336.9" x2="1309.14" y2="336.9" xlink:href="#linear-gradient-32"/><linearGradient id="linear-gradient-34" x1="1215.26" y1="350.38" x2="1283.72" y2="350.38" xlink:href="#linear-gradient-32"/><linearGradient id="linear-gradient-35" x1="1168.79" y1="317.32" x2="1168.06" y2="397.96" gradientTransform="matrix(1, 0, 0, -1, -970.95, 704.49)" xlink:href="#linear-gradient-32"/><linearGradient id="linear-gradient-36" x1="1167.78" y1="348.85" x2="1168.79" y2="382.75" gradientTransform="matrix(-1, 0, 0, 1, 1366, 0)" xlink:href="#linear-gradient"/><linearGradient id="linear-gradient-37" x1="1161.48" y1="324.13" x2="1162.56" y2="360.81" xlink:href="#linear-gradient-25"/><linearGradient id="linear-gradient-38" x1="1114.4" y1="191.04" x2="1317.41" y2="191.04" gradientTransform="matrix(1, 0, 0, -1, -1065.81, 382.08)" xlink:href="#linear-gradient-9"/><linearGradient id="linear-gradient-39" x1="1114.63" y1="259.9" x2="1207.91" y2="259.9" gradientTransform="matrix(1, 0, 0, -1, -956.54, 519.79)" xlink:href="#linear-gradient-9"/><linearGradient id="linear-gradient-40" x1="1161.32" y1="239.09" x2="1167.87" y2="289.74" xlink:href="#linear-gradient-32"/><linearGradient id="linear-gradient-41" x1="1163.67" y1="236.39" x2="1164.56" y2="297.79" gradientTransform="matrix(-1, 0, 0, 1, 1366, 0)" xlink:href="#linear-gradient"/><linearGradient id="linear-gradient-42" x1="1163.23" y1="236.12" x2="1164.12" y2="297.86" gradientTransform="matrix(1, 0, 0, -1, -961.55, 539.87)" xlink:href="#linear-gradient"/><linearGradient id="linear-gradient-43" x1="1.51" y1="768.5" x2="1.51" y2="769.02" gradientTransform="matrix(243.28, 0, 0, -243.28, 324.17, 187508.47)" gradientUnits="userSpaceOnUse"><stop offset="0" stop-color="gray" stop-opacity="0.25"/><stop offset="0.54" stop-color="gray" stop-opacity="0.12"/><stop offset="1" stop-color="gray" stop-opacity="0.1"/></linearGradient><linearGradient id="linear-gradient-44" x1="656.5" y1="526.97" x2="725.17" y2="526.97" xlink:href="#linear-gradient"/><linearGradient id="linear-gradient-45" x1="1.51" y1="767.67" x2="1.51" y2="768.18" gradientTransform="matrix(243.28, 0, 0, -243.28, 326.44, 187090.16)" xlink:href="#linear-gradient-43"/><linearGradient id="linear-gradient-46" x1="657.64" y1="312.29" x2="726.34" y2="312.29" xlink:href="#linear-gradient"/></defs><g style="isolation:isolate"><g id="Layer_1" data-name="Layer 1"><g style="opacity:0.6"><rect x="0.82" width="1371.75" height="773.3" style="opacity:0.6;fill:url(#linear-gradient)"/><path d="M-.18,76.12C11,118.31,42.34,211.34,129.65,272.56c40.94,28.71,82.06,41.92,119.55,49.89,204.46,43.46,291.07-71.52,471.54-58.21,209,15.43,256.68,181.77,446.64,161.32,91.55-9.86,161.2-57.18,202.57-91.47.54,159.6,1.08,274.31,1.62,433.91H-.18C-3,535.53,2.68,308.59-.18,76.12Z" transform="translate(1 5.3)" style="opacity:0.32;fill:url(#linear-gradient-2)"/></g><g style="opacity:0.30000000000000004;mix-blend-mode:multiply"><path d="M182.33,596V574.94a4.33,4.33,0,0,1,4.11-4.32l10.44-.53a59.29,59.29,0,0,1,5.83-14l-7.36-8.14a3.79,3.79,0,0,1,.13-5.23l15.6-15.6a3.81,3.81,0,0,1,5.24-.14l8.13,7.36a58.75,58.75,0,0,1,14-5.82l.49-9.66a5.15,5.15,0,0,1,5.15-4.89H263.6a5.15,5.15,0,0,1,5.15,4.89l.49,9.66a58.51,58.51,0,0,1,14,5.82l7.68-6.94a4.44,4.44,0,0,1,6.13.16l14.73,14.72a4.44,4.44,0,0,1,.15,6.13L305,556.07a58.44,58.44,0,0,1,5.82,14l10.1.52a4.67,4.67,0,0,1,4.45,4.68v20.37a4.67,4.67,0,0,1-4.45,4.68l-10.1.51a58.35,58.35,0,0,1-5.82,14l7.26,8a4,4,0,0,1-.14,5.45l-15.39,15.39a4,4,0,0,1-5.45.14l-8-7.26a58.51,58.51,0,0,1-14,5.82L268.7,653a4.21,4.21,0,0,1-4.21,4H243.23a4.23,4.23,0,0,1-4.22-4l-.53-10.54a58.75,58.75,0,0,1-14-5.82l-7.92,7.16a4.11,4.11,0,0,1-5.65-.14l-15.2-15.2a4.11,4.11,0,0,1-.14-5.65l7.17-7.92a58.37,58.37,0,0,1-5.83-14l-10.44-.52A4.33,4.33,0,0,1,182.33,596Zm68.86,22.57a33.21,33.21,0,1,0-30.43-30.37A33.21,33.21,0,0,0,251.19,618.58Z" transform="translate(1 5.3)" style="fill:url(#linear-gradient-3)"/></g><g style="opacity:0.3"><path d="M562.11,77.83l7.32,6.61A55.66,55.66,0,0,1,582.68,79l.51-10.07a3.86,3.86,0,0,1,3.86-3.67h20.28a3.87,3.87,0,0,1,3.87,3.67L611.71,79A55.76,55.76,0,0,1,625,84.44l7.39-6.67a4,4,0,0,1,5.49.14L652,92.09a4,4,0,0,1,.14,5.49L645.48,105A55.25,55.25,0,0,1,651,118.22l10.2.51a3.74,3.74,0,0,1,3.55,3.73V143a3.74,3.74,0,0,1-3.55,3.73l-10.2.52a55.35,55.35,0,0,1-5.47,13.24l6.39,7.08a4.42,4.42,0,0,1-.15,6.1l-13.59,13.59a4.43,4.43,0,0,1-6.1.16L625,181a55.35,55.35,0,0,1-13.24,5.47l-.5,9.76a4.2,4.2,0,0,1-4.19,4H587.36a4.2,4.2,0,0,1-4.19-4l-.49-9.76A55.25,55.25,0,0,1,569.43,181l-6.77,6.11A4.86,4.86,0,0,1,556,187l-13-13a4.86,4.86,0,0,1-.17-6.7l6.12-6.77a55,55,0,0,1-5.48-13.24l-10.34-.52a3.59,3.59,0,0,1-3.4-3.59V122.32a3.58,3.58,0,0,1,3.4-3.58l10.34-.52A54.64,54.64,0,0,1,548.91,105l-6.63-7.33a4.08,4.08,0,0,1,.15-5.62L556.49,78A4.07,4.07,0,0,1,562.11,77.83Zm14.81,31a31.35,31.35,0,1,0,40.59,0A31.36,31.36,0,0,0,576.92,108.82Z" transform="translate(1 5.3)" style="fill:url(#linear-gradient-4)"/></g><rect x="36.89" y="116.87" width="567.24" height="462.49" rx="15.53" transform="translate(642.02 701.53) rotate(180)" style="fill:url(#linear-gradient-5)"/><rect x="268.78" y="288.21" width="314.34" height="219.55" rx="9.97" transform="translate(852.89 801.28) rotate(180)" style="opacity:0.5;mix-blend-mode:multiply;fill:url(#linear-gradient-6)"/><rect x="263.88" y="284.85" width="314.34" height="219.55" rx="9.97" transform="translate(843.1 794.55) rotate(180)" style="fill:#fff"/><path d="M289.88,397.53a77.71,77.71,0,1,0,77.71-77.71A77.71,77.71,0,0,0,289.88,397.53Z" transform="translate(1 5.3)" style="fill:#ede5fc"/><path d="M362.59,316.26a77.71,77.71,0,1,1-48.41,138.46L362.59,394Z" transform="translate(1 5.3)" style="fill:url(#linear-gradient-7)"/><path d="M300.66,347a77.61,77.61,0,0,1,61.93-30.77V394Z" transform="translate(1 5.3)" style="fill:url(#linear-gradient-8)"/><path d="M300.66,347a77.61,77.61,0,0,1,61.93-30.77V394Z" transform="translate(1 5.3)" style="fill:url(#linear-gradient-9)"/><path d="M284.88,394A77.41,77.41,0,0,1,300.66,347L362.59,394l-48.41,60.76A77.52,77.52,0,0,1,284.88,394Z" transform="translate(1 5.3)" style="fill:url(#linear-gradient-10)"/><rect x="436.2" y="319.25" width="132.16" height="4.99" rx="0.88" style="fill:#ede5fc"/><rect x="436.2" y="337.06" width="132.16" height="4.99" rx="0.88" style="fill:#ede5fc"/><rect x="484.39" y="354.85" width="83.97" height="4.99" rx="0.88" style="fill:#ede5fc"/><rect x="484.39" y="372.65" width="83.97" height="4.99" rx="0.88" style="fill:#ede5fc"/><path d="M434.45,310.75h130.4a.88.88,0,0,1,.88.88v3.22a.88.88,0,0,1-.88.88H434.45a.89.89,0,0,1-.89-.89v-3.22A.88.88,0,0,1,434.45,310.75Z" transform="translate(1000.3 631.8) rotate(180)" style="fill:url(#linear-gradient-11)"/><rect x="433.57" y="328.55" width="132.16" height="4.99" rx="0.88" transform="translate(1000.3 667.4) rotate(180)" style="fill:url(#linear-gradient-12)"/><rect x="481.75" y="346.35" width="83.98" height="4.99" rx="0.88" transform="translate(1048.48 703) rotate(180)" style="fill:url(#linear-gradient-13)"/><rect x="481.75" y="364.15" width="83.98" height="4.99" rx="0.88" transform="translate(1048.48 738.59) rotate(180)" style="fill:url(#linear-gradient-14)"/><path d="M35.86,115.84H605.54a0,0,0,0,1,0,0v23.33a11.42,11.42,0,0,1-11.42,11.42H47.28a11.42,11.42,0,0,1-11.42-11.42V115.84A0,0,0,0,1,35.86,115.84Z" transform="translate(642.4 271.75) rotate(180)" style="fill:#fff"/><g style="opacity:0.4;mix-blend-mode:multiply"><path d="M50.51,235.26h85a2.24,2.24,0,0,0,2.24-2.24h0a2.24,2.24,0,0,0-2.24-2.25h-85A2.25,2.25,0,0,0,48.26,233h0A2.25,2.25,0,0,0,50.51,235.26Z" transform="translate(1 5.3)" style="fill:url(#linear-gradient-15)"/><path d="M50.51,248.84h85a2.24,2.24,0,0,0,2.24-2.25h0a2.24,2.24,0,0,0-2.24-2.25h-85a2.25,2.25,0,0,0-2.25,2.25h0A2.25,2.25,0,0,0,50.51,248.84Z" transform="translate(1 5.3)" style="fill:url(#linear-gradient-16)"/><path d="M50.51,262.41h85a2.24,2.24,0,0,0,2.24-2.25h0a2.24,2.24,0,0,0-2.24-2.25h-85a2.25,2.25,0,0,0-2.25,2.25h0A2.25,2.25,0,0,0,50.51,262.41Z" transform="translate(1 5.3)" style="fill:url(#linear-gradient-17)"/><path d="M74.75,276h60.79a2.24,2.24,0,0,0,2.24-2.24h0a2.24,2.24,0,0,0-2.24-2.25H74.75a2.25,2.25,0,0,0-2.25,2.25h0A2.24,2.24,0,0,0,74.75,276Z" transform="translate(1 5.3)" style="fill:url(#linear-gradient-18)"/><path d="M91.37,289.55h44.17a2.24,2.24,0,0,0,2.24-2.24h0a2.24,2.24,0,0,0-2.24-2.25H91.37a2.25,2.25,0,0,0-2.25,2.25h0A2.24,2.24,0,0,0,91.37,289.55Z" transform="translate(1 5.3)" style="fill:url(#linear-gradient-19)"/></g><g style="opacity:0.31"><path d="M557.8,133.92a9.38,9.38,0,1,0,9.38-9.38A9.39,9.39,0,0,0,557.8,133.92Z" transform="translate(1 5.3)" style="fill:url(#linear-gradient-20)"/><path d="M534.43,133.92a9.38,9.38,0,1,0,9.38-9.38A9.38,9.38,0,0,0,534.43,133.92Z" transform="translate(1 5.3)" style="fill:url(#linear-gradient-21)"/><path d="M511.05,133.92a9.38,9.38,0,1,0,9.38-9.38A9.39,9.39,0,0,0,511.05,133.92Z" transform="translate(1 5.3)" style="fill:url(#linear-gradient-22)"/></g><rect x="487.82" y="175.12" width="94.22" height="94.23" rx="4.44" transform="translate(1070.87 449.77) rotate(180)" style="opacity:0.5;mix-blend-mode:multiply;fill:url(#linear-gradient-23)"/><rect x="482.52" y="171.45" width="94.23" height="94.23" rx="4.44" transform="translate(1060.26 442.43) rotate(180)" style="fill:#fff"/><path d="M571.49,249.36H490l22.11-48.18a3,3,0,0,1,5.29-.28l17.31,28.88,12.65-13.07a3,3,0,0,1,4.7.53Z" transform="translate(1 5.3)" style="fill:url(#linear-gradient-24)"/><path d="M531.88,197.35a7.34,7.34,0,1,0,7.34-7.34A7.33,7.33,0,0,0,531.88,197.35Z" transform="translate(1 5.3)" style="fill:url(#linear-gradient-25)"/><rect x="379.21" y="175.12" width="94.23" height="94.23" rx="4.44" transform="translate(853.65 449.77) rotate(180)" style="opacity:0.5;mix-blend-mode:multiply;fill:url(#linear-gradient-26)"/><rect x="373.91" y="171.45" width="94.23" height="94.23" rx="4.44" transform="translate(843.05 442.43) rotate(180)" style="fill:#fff"/><path d="M402.21,248.85c0,2.59,8.42,4.69,18.82,4.69s18.81-2.1,18.81-4.69-8.42-4.69-18.81-4.69S402.21,246.26,402.21,248.85Z" transform="translate(1 5.3)" style="fill:url(#linear-gradient-27)"/><path d="M404.8,230.8,421,247.15l16.22-16.35a23.27,23.27,0,0,0,0-32.72h0a22.82,22.82,0,0,0-32.45,0h0A23.27,23.27,0,0,0,404.8,230.8Z" transform="translate(1 5.3)" style="fill:url(#linear-gradient-28)"/><path d="M406.25,213.79c0,7.9,6.74,14.31,15.05,14.31s15.05-6.41,15.05-14.31-6.74-14.3-15.05-14.3S406.25,205.89,406.25,213.79Z" transform="translate(1 5.3)" style="fill:#fff"/><path d="M162.56,414.54H246.7a4.9,4.9,0,0,1,4.9,4.9v80.19a4.89,4.89,0,0,1-4.89,4.89H162.56a4.89,4.89,0,0,1-4.89-4.89v-80.2A4.89,4.89,0,0,1,162.56,414.54Z" transform="translate(410.26 924.37) rotate(180)" style="opacity:0.4;mix-blend-mode:multiply;fill:url(#linear-gradient-29)"/><path d="M159.26,412.24h84.15a4.89,4.89,0,0,1,4.89,4.89v80.2a4.89,4.89,0,0,1-4.89,4.89H159.26a4.9,4.9,0,0,1-4.9-4.9V417.13A4.89,4.89,0,0,1,159.26,412.24Z" transform="translate(403.67 919.76) rotate(180)" style="fill:#fff"/><path d="M55.25,413.34H139.4a4.9,4.9,0,0,1,4.9,4.9v80.19a4.89,4.89,0,0,1-4.89,4.89H55.25a4.89,4.89,0,0,1-4.89-4.89v-80.2A4.9,4.9,0,0,1,55.25,413.34Z" transform="translate(195.65 921.96) rotate(180)" style="opacity:0.4;mix-blend-mode:multiply;fill:url(#linear-gradient-30)"/><path d="M52,412.24H136.1a4.89,4.89,0,0,1,4.89,4.89v80.19a4.9,4.9,0,0,1-4.9,4.9H52a4.89,4.89,0,0,1-4.89-4.89v-80.2A4.89,4.89,0,0,1,52,412.24Z" transform="translate(189.06 919.76) rotate(180)" style="fill:#fff"/><rect x="50.96" y="310.34" width="200.46" height="92.37" rx="4.23" transform="translate(303.38 718.36) rotate(180)" style="opacity:0.4;mix-blend-mode:multiply;fill:url(#linear-gradient-31)"/><rect x="48.26" y="308.52" width="200.45" height="92.37" rx="4.23" transform="translate(297.98 714.72) rotate(180)" style="fill:#fff"/><path d="M59.22,325.65h89.16a2.3,2.3,0,0,0,2.36-2.24h0a2.3,2.3,0,0,0-2.36-2.23H59.22a2.3,2.3,0,0,0-2.36,2.23h0A2.3,2.3,0,0,0,59.22,325.65Z" transform="translate(1 5.3)" style="fill:url(#linear-gradient-32)"/><path d="M59.22,339.13h89.16a2.3,2.3,0,0,0,2.36-2.23h0a2.29,2.29,0,0,0-2.36-2.23H59.22a2.29,2.29,0,0,0-2.36,2.23h0A2.3,2.3,0,0,0,59.22,339.13Z" transform="translate(1 5.3)" style="fill:url(#linear-gradient-33)"/><path d="M84.64,352.61h63.74a2.3,2.3,0,0,0,2.36-2.23h0a2.3,2.3,0,0,0-2.36-2.23H84.64a2.3,2.3,0,0,0-2.36,2.23h0A2.3,2.3,0,0,0,84.64,352.61Z" transform="translate(1 5.3)" style="fill:url(#linear-gradient-34)"/><rect x="160.99" y="317.13" width="73.08" height="70.24" rx="3.24" transform="translate(396.05 709.8) rotate(180)" style="fill:url(#linear-gradient-35)"/><path d="M229.83,375.35H165l17.58-36.25a2.45,2.45,0,0,1,4.21-.22l13.77,21.74,10.06-9.83a2.44,2.44,0,0,1,3.74.4Z" transform="translate(1 5.3)" style="fill:url(#linear-gradient-36)"/><path d="M198.32,336.22a5.85,5.85,0,1,0,5.84-5.53A5.69,5.69,0,0,0,198.32,336.22Z" transform="translate(1 5.3)" style="fill:url(#linear-gradient-37)"/><rect x="48.59" y="176.28" width="203.01" height="29.52" rx="3.21" transform="translate(301.19 387.38) rotate(180)" style="opacity:0.4;mix-blend-mode:multiply;fill:url(#linear-gradient-38)"/><rect x="45.86" y="174.18" width="203" height="29.52" rx="3.21" transform="translate(295.73 383.19) rotate(180)" style="fill:#fff"/><path d="M51.81,234.21h84.35A2.23,2.23,0,0,0,138.4,232h0a2.24,2.24,0,0,0-2.24-2.24H51.81A2.23,2.23,0,0,0,49.58,232h0A2.23,2.23,0,0,0,51.81,234.21Z" transform="translate(1 5.3)" style="fill:#fff"/><path d="M51.81,247.69h84.35a2.23,2.23,0,0,0,2.24-2.23h0a2.24,2.24,0,0,0-2.24-2.24H51.81a2.23,2.23,0,0,0-2.23,2.24h0A2.23,2.23,0,0,0,51.81,247.69Z" transform="translate(1 5.3)" style="fill:#fff"/><path d="M51.81,261.17h84.35a2.23,2.23,0,0,0,2.24-2.23h0a2.23,2.23,0,0,0-2.24-2.23H51.81a2.23,2.23,0,0,0-2.23,2.23h0A2.23,2.23,0,0,0,51.81,261.17Z" transform="translate(1 5.3)" style="fill:#fff"/><path d="M75.86,274.65h60.3a2.23,2.23,0,0,0,2.24-2.23h0a2.23,2.23,0,0,0-2.24-2.23H75.86a2.23,2.23,0,0,0-2.23,2.23h0A2.23,2.23,0,0,0,75.86,274.65Z" transform="translate(1 5.3)" style="fill:#fff"/><path d="M92.35,288.13h43.81a2.23,2.23,0,0,0,2.24-2.23h0a2.23,2.23,0,0,0-2.24-2.23H92.35a2.23,2.23,0,0,0-2.24,2.23h0A2.23,2.23,0,0,0,92.35,288.13Z" transform="translate(1 5.3)" style="fill:#fff"/><rect x="158.09" y="216.17" width="93.28" height="87.45" rx="4.62" transform="translate(410.46 525.09) rotate(180)" style="opacity:0.4;mix-blend-mode:multiply;fill:url(#linear-gradient-39)"/><rect x="155.58" y="214.35" width="93.28" height="87.45" rx="4.62" transform="translate(405.45 521.45) rotate(180)" style="fill:#fff"/><path d="M167.79,258.07a34.44,34.44,0,1,0,34.43-34.43A34.44,34.44,0,0,0,167.79,258.07Z" transform="translate(1 5.3)" style="fill:url(#linear-gradient-40)"/><path d="M190.66,243.81a11.57,11.57,0,1,0,11.56-11.56A11.57,11.57,0,0,0,190.66,243.81Z" transform="translate(1 5.3)" style="fill:url(#linear-gradient-41)"/><path d="M183.71,257.53h37a1.28,1.28,0,0,1,1.28,1.28v14.61a8.91,8.91,0,0,1-8.91,8.91H191.34a8.91,8.91,0,0,1-8.91-8.91V258.82A1.29,1.29,0,0,1,183.71,257.53Z" transform="translate(405.45 545.17) rotate(180)" style="fill:url(#linear-gradient-42)"/><line id="Line_2" data-name="Line 2" x1="605.11" y1="333.21" x2="682.34" y2="260.13" style="fill:none;stroke:#535461;stroke-miterlimit:10;stroke-dasharray:12.579999923706055,12.579999923706055"/><line id="Line_3" data-name="Line 3" x1="684.55" y1="258.03" x2="686.65" y2="256.05" style="fill:none;stroke:#535461;stroke-miterlimit:10"/><line id="Line_5" data-name="Line 5" x1="606.01" y1="418.35" x2="684.25" y2="488.59" style="fill:none;stroke:#535461;stroke-miterlimit:10;stroke-dasharray:12.4399995803833,12.4399995803833"/><line id="Line_6" data-name="Line 6" x1="686.48" y1="490.59" x2="688.63" y2="492.53" style="fill:none;stroke:#535461;stroke-miterlimit:10"/><g id="Group_51" data-name="Group 51" style="opacity:0.5"><circle id="Ellipse_29" data-name="Ellipse 29" cx="692.41" cy="482.86" r="62.43" style="fill:url(#linear-gradient-43)"/></g><circle id="Ellipse_30" data-name="Ellipse 30" cx="692.41" cy="482.52" r="61.11" style="fill:#f5f5f5"/><path id="Path_205" data-name="Path 205" d="M725.21,482.72c0,22.5-14.69,47.56-32.8,47.56s-32.8-25.06-32.8-47.56,14.69-33.93,32.8-33.93S725.21,460.21,725.21,482.72Z" transform="translate(1 5.3)" style="fill:#333"/><path id="Path_206" data-name="Path 206" d="M691.58,538.5a60.76,60.76,0,0,0,33.59-10c-2.25-12.31-10.82-13-10.82-13H667.12s-8.08.67-10.62,12a60.85,60.85,0,0,0,35.08,11.07Z" transform="translate(1 5.3)" style="fill:url(#linear-gradient-44)"/><path id="Path_207" data-name="Path 207" d="M681.42,500.43h18.9v16.1a8.47,8.47,0,0,1-8.47,8.47h-2a8.47,8.47,0,0,1-8.47-8.47v-16.1Z" transform="translate(1 5.3)" style="opacity:0.10000000149011612;isolation:isolate"/><path id="Path_208" data-name="Path 208" d="M683.06,499.73h15.66a1.62,1.62,0,0,1,1.62,1.62v14.48a8.47,8.47,0,0,1-8.47,8.47h-2a8.47,8.47,0,0,1-8.46-8.47h0V501.35a1.62,1.62,0,0,1,1.61-1.62Z" transform="translate(1 5.3)" style="fill:#fdb797"/><path id="Path_209" data-name="Path 209" d="M681.45,507.57a27.13,27.13,0,0,0,18.9.05V505.3h-18.9Z" transform="translate(1 5.3)" style="opacity:0.10000000149011612;isolation:isolate"/><circle id="Ellipse_31" data-name="Ellipse 31" cx="691.94" cy="487.05" r="27.09" style="fill:#fdb797"/><ellipse id="Ellipse_32" data-name="Ellipse 32" cx="665.41" cy="485.9" rx="2.52" ry="4.73" style="fill:#fdb797"/><ellipse id="Ellipse_33" data-name="Ellipse 33" cx="718.33" cy="485.9" rx="2.52" ry="4.73" style="fill:#fdb797"/><path id="Path_210" data-name="Path 210" d="M666.93,467.05s15.34,21,50.44,13.81c0,0,3.92-4.77-5.62-19.43S675.63,449.16,666.93,467.05Z" transform="translate(1 5.3)" style="opacity:0.10000000149011612;isolation:isolate"/><path id="Path_211" data-name="Path 211" d="M666.93,466.72s15.34,21,50.44,13.8c0,0,3.92-4.77-5.62-19.42S675.63,448.82,666.93,466.72Z" transform="translate(1 5.3)" style="fill:#333"/><g id="Group_52" data-name="Group 52" style="opacity:0.5"><circle id="Ellipse_34" data-name="Ellipse 34" cx="693.57" cy="268.18" r="62.43" style="fill:url(#linear-gradient-45)"/></g><circle id="Ellipse_35" data-name="Ellipse 35" cx="693.7" cy="267.78" r="61.11" style="fill:#f5f5f5"/><path id="Path_212" data-name="Path 212" d="M692.75,323.82a60.78,60.78,0,0,0,33.59-10.05c-2.25-12.31-10.82-13-10.82-13H668.27s-8.09.67-10.63,12a60.77,60.77,0,0,0,35.11,11.07Z" transform="translate(1 5.3)" style="fill:url(#linear-gradient-46)"/><circle id="Ellipse_36" data-name="Ellipse 36" cx="693.11" cy="266.49" r="29.5" style="fill:#333"/><path id="Path_213" data-name="Path 213" d="M682.57,285.75h18.9v16.1a8.47,8.47,0,0,1-8.47,8.46h-2a8.47,8.47,0,0,1-8.47-8.46Z" transform="translate(1 5.3)" style="opacity:0.10000000149011612;isolation:isolate"/><path id="Path_214" data-name="Path 214" d="M684.2,285.05h15.67a1.63,1.63,0,0,1,1.62,1.62v14.49a8.47,8.47,0,0,1-8.47,8.46h-2a8.47,8.47,0,0,1-8.49-8.45h0V286.67a1.63,1.63,0,0,1,1.62-1.62Z" transform="translate(1 5.3)" style="fill:#fdb797"/><path id="Path_215" data-name="Path 215" d="M682.62,292.89a27.13,27.13,0,0,0,18.9.05v-2.32h-18.9Z" transform="translate(1 5.3)" style="opacity:0.10000000149011612;isolation:isolate"/><circle id="Ellipse_37" data-name="Ellipse 37" cx="693.11" cy="272.37" r="27.09" style="fill:#fdb797"/><path id="Path_216" data-name="Path 216" d="M672.81,242.43s11.42,23.17,43.62,9.71l-7.5-11.75-13.29-4.78Z" transform="translate(1 5.3)" style="opacity:0.10000000149011612;isolation:isolate"/><path id="Path_217" data-name="Path 217" d="M672.81,242.09s11.42,23.17,43.62,9.71L708.93,240l-13.29-4.77Z" transform="translate(1 5.3)" style="fill:#333"/><path id="Path_218" data-name="Path 218" d="M672.71,240.52a15.61,15.61,0,0,1,3.86-6.31c5.31-5.27,14.07-6.38,18.55-12.39a3.51,3.51,0,0,1-1.3,4.79l-.31.16c4.29,0,9.27-.41,11.69-3.94a8,8,0,0,1-1.35,8.48c3.81.17,7.87,2.75,8.11,6.55a7.58,7.58,0,0,1-3.5,6.39,19.4,19.4,0,0,1-7.08,2.66C694.16,248.51,668,255.2,672.71,240.52Z" transform="translate(1 5.3)" style="fill:#333"/><ellipse id="Ellipse_38" data-name="Ellipse 38" cx="666" cy="272.35" rx="2.52" ry="4.73" style="fill:#fdb797"/><ellipse id="Ellipse_39" data-name="Ellipse 39" cx="720.19" cy="272.35" rx="2.52" ry="4.73" style="fill:#fdb797"/></g></g></svg>